<svg width="300" height="300" viewBox="0 0 300 300" fill="none" xmlns="http://www.w3.org/2000/svg">
<path d="M171.742 249.877H127.992C119.242 249.877 111.742 259.877 116.742 268.627C124.242 279.877 136.742 287.377 150.492 287.377C164.242 287.377 176.742 279.877 182.992 268.627C187.992 259.877 181.742 249.877 171.742 249.877Z" fill="black"/>
<path d="M272.99 208.628L267.99 202.378C247.99 176.128 237.99 144.878 237.99 112.378V103.628C237.99 58.6279 205.49 18.6279 160.49 13.6279C107.99 7.37789 62.9904 48.6279 62.9904 99.8779V112.378C62.9904 144.878 52.9904 176.128 32.9904 202.378L27.9904 208.628C25.4904 211.128 24.2404 216.128 25.4904 218.628C29.2404 229.878 39.2404 237.378 50.4904 237.378H250.49C261.74 237.378 271.74 229.878 274.24 218.628C275.49 214.878 274.24 211.128 272.99 208.628Z" fill="black"/>
</svg>
