<svg width="512" height="512" viewBox="0 0 512 512" fill="none" xmlns="http://www.w3.org/2000/svg">
<path d="M463.214 424.31L387.29 292.811C383.795 286.739 378.767 281.692 372.709 278.173C366.651 274.654 359.776 272.786 352.77 272.757C345.764 272.728 338.874 274.538 332.787 278.007C326.7 281.475 321.63 286.48 318.084 292.522L345.749 340.429C347.854 344.073 348.424 348.403 347.336 352.468C346.247 356.532 343.589 359.998 339.945 362.102C336.302 364.206 331.971 364.777 327.907 363.688C323.842 362.6 320.377 359.941 318.272 356.298L299.737 324.199L299.717 324.236L247.059 233.036C242.576 225.267 236.126 218.816 228.359 214.331C220.592 209.845 211.781 207.484 202.812 207.484C193.843 207.484 185.032 209.845 177.265 214.331C169.498 218.816 163.049 225.267 158.566 233.036V233.027L48.1267 424.31C46.7341 426.721 46.0006 429.455 46 432.239C45.9994 435.023 46.7318 437.758 48.1234 440.169C49.5151 442.58 51.517 444.582 53.9279 445.974C56.3388 447.366 59.0736 448.098 61.8574 448.098H449.483C452.267 448.098 455.002 447.366 457.412 445.974C459.823 444.582 461.825 442.58 463.217 440.169C464.609 437.758 465.341 435.023 465.34 432.239C465.34 429.455 464.606 426.721 463.214 424.31V424.31Z" fill="black"/>
<path d="M328.927 201.427C366.876 201.427 397.64 170.663 397.64 132.714C397.64 94.7642 366.876 64 328.927 64C290.977 64 260.213 94.7642 260.213 132.714C260.213 170.663 290.977 201.427 328.927 201.427Z" fill="black"/>
</svg>
