<svg width="512" height="512" viewBox="0 0 512 512" fill="none" xmlns="http://www.w3.org/2000/svg">
<path fill-rule="evenodd" clip-rule="evenodd" d="M477.119 272.065L474.321 267.39C465.401 252.523 460.922 245.07 455.033 239.298C449.126 233.507 441.496 229.126 426.16 220.323C423.832 218.993 421.347 217.662 419.078 216.254C417.2 215.178 415.831 214.298 414.775 213.632C413.346 212.713 412.662 212.282 412.408 212.282C412.114 212.282 411.371 212.674 409.942 213.397C408.495 214.141 406.5 215.177 403.448 216.507L391.886 221.594L381.792 226.112C381.969 228.421 381.44 231.238 380.579 235.854L380.169 238.006L379.23 242.877L379.152 243.209C378.428 247.161 377.627 250.916 376.804 254.652L376.726 254.966L376.706 255.044C375.963 258.506 375.259 261.694 374.612 264.648L373.087 271.631L373.009 271.984C372.403 274.977 371.835 278.067 371.327 281.315C368.353 299.997 371.581 315.94 375.63 333.448C376.335 336.304 377.116 339.356 377.978 342.623C378.898 343.993 380.814 343.601 383.514 343.054C385.021 342.741 386.683 342.388 388.444 342.193C408.789 339.689 422.971 338.809 437.153 339.063L440.381 339.142L468.257 317.154C466.556 312.732 461.666 300.565 459.337 300.115C454.368 299.118 448.069 277.15 446.798 272.533C445.957 272.122 443.453 271.164 436.313 269.795C424.262 267.467 419.079 245.009 419.079 244.951C418.766 243.66 419.568 242.368 420.859 242.055C422.15 241.762 423.442 242.564 423.754 243.855C423.754 243.895 428.254 263.359 437.213 265.081C448.462 267.253 450.594 269.364 450.594 269.384C450.927 269.718 451.142 270.128 451.24 270.578C451.729 272.339 457.832 294.913 460.277 295.401C465.502 296.438 473.365 317.116 473.384 317.174C473.736 318.153 473.384 319.229 472.602 319.834L447.718 339.455C457.989 340.021 468.923 341.117 482.774 342.585C482.852 334.584 483.146 327.561 483.616 320.598C484.125 312.949 484.847 305.222 485.728 296.262C486.707 286.09 485.024 283.664 480.974 277.795C479.859 276.191 478.568 274.332 477.16 272.103L477.119 272.065ZM339.755 148.14C333.338 148.14 327.47 150.545 323.028 154.517C318.763 158.312 315.791 163.575 314.89 169.482C320.466 177.307 325.923 181.767 331.831 185.445L332.007 185.562L332.476 185.836L332.809 186.051L333.612 186.54L333.787 186.638L334.023 186.775L334.433 187.01H334.453L334.844 187.244L335.117 187.4L335.256 187.478L335.666 187.712L335.783 187.791L336.076 187.948L336.468 188.163L336.507 188.183L336.918 188.417L337.152 188.534L337.347 188.651L337.758 188.885L337.837 188.924L338.189 189.12L338.521 189.296L339.05 189.59L339.205 189.688L339.479 189.825L339.909 190.06L340.223 190.236L340.32 190.295L340.38 190.315L340.517 190.413L340.673 190.492L340.751 190.531L340.829 190.57L340.985 190.668L341.142 190.746L341.162 190.766L341.299 190.844L341.592 191H341.613L341.769 191.098L341.925 191.176L342.023 191.235L342.238 191.353L342.415 191.451L342.434 191.471L342.572 191.53L342.729 191.628L342.866 191.706H342.886L343.042 191.804L343.198 191.883L343.296 191.942L343.355 191.981L343.532 192.059L343.687 192.157L343.747 192.177L343.846 192.255L344 192.33L344.176 192.428L344.332 192.506L344.488 192.605L344.605 192.683L344.644 192.703L344.977 192.879L345.055 192.918L345.133 192.978L345.798 193.349L345.935 193.427L345.974 193.447L346.13 193.545L346.288 193.643L346.385 193.702L346.64 193.839L346.796 193.938L346.835 193.957L346.972 194.036L347.97 194.642L348.146 194.74L348.654 195.033V195.054L350.396 196.11C354.562 194.173 358.123 191.102 360.666 187.307C363.347 183.317 364.912 178.504 364.912 173.301C364.912 166.356 362.094 160.076 357.556 155.519C352.998 150.956 346.699 148.14 339.755 148.14ZM199.24 332.023C199.299 331.789 199.396 331.592 199.513 331.377C202.702 326.231 204.678 319.757 205.656 312.48C206.752 304.342 206.615 295.187 205.578 285.758L205.538 285.347L205.559 284.604L205.206 281.905L205.187 281.748L205.011 280.535V280.476L204.737 278.599L204.717 278.5L204.326 276.075L204.267 275.762L204.208 275.449L204.149 275.078L203.778 273.023L203.758 272.925L203.64 272.339V272.3L203.523 271.654L203.386 271.028V270.969L203.269 270.402L203.249 270.304L203.151 269.776L203.112 269.62L203.013 269.15L202.974 268.935L202.876 268.524L202.758 267.918L202.739 267.879L202.602 267.254L202.191 265.375L202.073 264.887L202.053 264.749L201.896 264.123L201.857 263.889L201.758 263.497C200.311 257.473 198.629 251.545 196.77 245.911C192.603 233.254 187.595 222.103 182.822 214.514L182.568 214.885L182.392 215.179L182.314 215.277L182.079 215.669L181.942 215.884L181.825 216.079L181.591 216.491L181.513 216.608L181.337 216.881L181.083 217.311V217.331L180.633 218.095L180.594 218.154L180.202 218.858L180.104 219.014L179.851 219.445L179.753 219.64L179.616 219.895L179.362 220.344L179.323 220.443L178.873 221.245L178.638 221.715L178.442 222.067L177.64 223.593L177.562 223.749L177.406 224.082L176.701 225.49L176.682 225.549L176.27 226.391L176.192 226.547L175.958 227.055L175.84 227.27L175.468 228.073L175.409 228.19L175.234 228.6L174.999 229.11H174.98L174.569 230.048L174.51 230.166L173.728 231.945L173.571 232.317L173.337 232.845L173.318 232.923L173.102 233.392L172.906 233.881L172.867 233.96L172.652 234.507L172.495 234.879L172.417 235.056L172.182 235.622L172.085 235.876L171.948 236.189L171.733 236.756L171.674 236.873L171.283 237.891L171.048 238.457L170.873 238.908L170.833 239.045L170.618 239.611L170.481 239.944L170.383 240.199L170.168 240.785L170.09 240.98L169.953 241.373L169.737 241.959L169.717 242.037L169.521 242.565L169.326 243.093L169.306 243.152L169.091 243.759L168.954 244.15L168.875 244.345L168.679 244.952L168.582 245.225L168.464 245.557L168.21 246.301L168.054 246.77L167.839 247.376V247.397L167.134 249.567L167.075 249.763L166.82 250.565L166.781 250.682V250.721C165.979 253.284 165.216 255.906 164.511 258.546L164.452 258.742C162.555 265.901 161.029 273.276 160.032 280.572C159.425 285.072 159.033 289.551 158.877 293.933V294.09L158.837 296.28L158.818 296.378V297.181V297.376V298.002V298.472L158.837 299.548V299.607L158.858 300.388V300.623L158.877 301.171L158.897 301.699L158.917 301.933L158.937 302.696V302.755L158.976 303.46L159.034 304.223L159.074 304.869L159.093 304.967L159.152 305.731V305.926L159.211 306.474L159.251 306.962L159.29 307.217L159.368 307.96V307.98L159.447 308.684L159.486 308.997L159.545 309.429L159.623 310.015L159.644 310.152L159.76 310.877L159.859 311.601L159.937 312.012L159.976 312.305L160.113 312.99V313.01L160.25 313.714L160.289 313.968L160.387 314.419L160.524 315.103L160.68 315.789L160.7 315.906L160.837 316.472L160.935 316.845L161.013 317.158L161.033 317.256L161.189 317.823L161.365 318.508L161.424 318.703L161.561 319.153L161.58 319.232L161.756 319.818L161.971 320.464V320.524L162.166 321.11L162.381 321.697L162.4 321.756L162.596 322.304L162.616 322.382L162.85 323.008L162.909 323.165L163.105 323.634L163.261 324.026L163.34 324.241L163.613 324.847V324.867L163.867 325.454L163.984 325.709L164.024 325.787L164.317 326.374L164.376 326.511L164.435 326.628L164.729 327.215L164.787 327.332L165.022 327.782L165.198 328.115L165.315 328.349L165.628 328.896L165.961 329.464L166.079 329.659C168.368 333.434 171.263 336.682 174.843 339.245H174.863L174.961 339.323L175.879 339.948L175.997 340.026L176.251 340.183L176.271 340.203L176.447 340.32L176.467 340.341H176.487L176.506 340.36C177.954 341.26 179.499 342.043 181.123 342.727V319.703L170.07 307.203C169.151 306.166 169.249 304.582 170.286 303.682C171.303 302.762 172.887 302.861 173.807 303.897L181.124 312.172V274.28L172.204 264.029C171.304 262.972 171.421 261.388 172.458 260.488C173.494 259.589 175.079 259.686 175.979 260.743L181.124 266.65V257.652C181.124 256.263 182.258 255.148 183.628 255.148C185.017 255.148 186.132 256.263 186.132 257.652V299.045L193.839 289.695C194.72 288.638 196.304 288.482 197.36 289.362C198.417 290.222 198.573 291.807 197.712 292.863L186.131 306.889V342.511C188.478 341.691 190.571 340.595 192.449 339.245C195.071 337.366 197.281 334.999 199.1 332.241L199.198 332.065L199.24 332.023ZM133.589 163.73L124.337 153.46L123.261 154.262C89.1058 179.79 80.1458 186.5 53.7558 223.394C46.1858 240.765 46.8308 255.339 47.4768 270.226C48.4358 291.451 49.3938 313.322 28.1498 344.796L28.7168 344.718C29.8718 344.581 31.2208 344.405 32.8248 344.327C44.7978 343.641 55.9088 342.625 67.0588 341.607L78.2668 340.59C89.3588 323.649 95.8918 294.364 101.761 268.151C106.319 247.71 110.467 229.106 116.159 219.11C121.577 209.602 121.95 200.819 122.282 192.74C122.732 182.08 123.143 172.572 133.589 163.73ZM146.774 234.33C149.278 234.33 151.527 235.348 153.171 236.99C154.794 238.614 155.812 240.883 155.812 243.386C155.812 245.889 154.794 248.14 153.171 249.783C151.527 251.407 149.278 252.425 146.774 252.425C144.27 252.425 142 251.407 140.377 249.783C138.733 248.139 137.717 245.889 137.717 243.386C137.717 240.883 138.734 238.633 140.377 236.99C142 235.348 144.27 234.33 146.774 234.33ZM122.791 299.59C124.708 299.59 126.43 300.372 127.701 301.624L127.76 301.682C128.992 302.934 129.736 304.657 129.736 306.534C129.736 308.452 128.972 310.192 127.701 311.444L127.642 311.504C126.39 312.735 124.688 313.499 122.791 313.499C120.894 313.499 119.152 312.716 117.901 311.465L117.842 311.405C116.61 310.134 115.846 308.432 115.846 306.534C115.846 304.638 116.629 302.896 117.881 301.643L117.94 301.584C119.191 300.352 120.913 299.59 122.791 299.59ZM266.71 307.102C267.022 304.969 267.687 302.955 268.686 301.155C269.664 299.355 270.955 297.77 272.558 296.46C274.143 295.169 275.962 294.231 277.899 293.624C279.875 293.037 281.968 292.782 284.12 292.899C285.45 292.958 286.468 294.073 286.409 295.403L286.389 295.638C286.057 297.77 285.392 299.785 284.413 301.604C283.434 303.385 282.143 304.969 280.539 306.28C278.955 307.591 277.136 308.53 275.199 309.117C273.222 309.723 271.11 309.958 268.959 309.86C267.648 309.782 266.631 308.667 266.689 307.356L266.71 307.102ZM376.844 225.527L376.805 225.39C376.317 223.942 374.732 222.475 371.739 219.677L368.452 216.607C361.117 209.369 354.641 204.517 348.813 200.781L348.695 200.722L348.342 200.488H348.322L347.031 199.666L346.972 199.646L346.855 199.568L346.678 199.451L346.523 199.373L346.484 199.334L346.13 199.119L346.071 199.098L345.955 199.02L345.759 198.902L345.642 198.825L345.583 198.786L345.407 198.687L345.231 198.57H345.191L345.036 198.472L344.859 198.374L344.76 198.296L344.682 198.257L344.506 198.159L344.33 198.042H344.31L344.154 197.943L343.978 197.845L343.879 197.787L343.782 197.727L343.604 197.629L343.449 197.53H343.428L343.252 197.432L343.076 197.334L343.017 197.295L342.899 197.217L342.724 197.119L342.587 197.041L342.547 197.021L342.37 196.923L342.195 196.825L342.155 196.805L342.018 196.727L341.842 196.629L341.725 196.569L341.686 196.53L341.509 196.432L341.334 196.334L341.313 196.313L341.158 196.235L340.981 196.137L340.883 196.078L340.805 196.039L340.649 195.941L340.473 195.843L340.297 195.765L340.12 195.667L340.06 195.628L339.944 195.569L339.787 195.471L339.631 195.392L339.611 195.373L339.435 195.294L339.279 195.195L339.22 195.157L339.103 195.097L338.926 194.999L338.808 194.94L338.77 194.901L338.593 194.823L338.437 194.725L338.398 194.705L337.752 194.353L337.596 194.275V194.255L337.126 194L336.853 193.862L336.658 193.746L336.208 193.511L336.13 193.452L335.738 193.257L335.386 193.042L335.287 193.003L334.837 192.748L334.661 192.649L334.388 192.493L333.939 192.259V192.239L333.488 191.985L333.234 191.848L333.039 191.73L332.588 191.476L332.529 191.437L332.138 191.221L331.825 191.045L331.708 190.967L331.276 190.713L331.12 190.635L330.827 190.458L330.397 190.185L329.966 189.93C317.7 182.496 307.352 172.539 294.637 139.969C293.893 140.555 292.915 141.299 291.623 142.16L279.103 150.531C278.008 151.256 276.521 150.963 275.778 149.847L275.582 149.494C263.807 122.597 251.423 112.326 229.631 94.27L226.306 91.512L218.598 98.691C197.51 118.254 181.763 132.885 162.161 157.71C159.638 160.899 157.231 163.794 154.845 166.513C152.439 169.252 149.877 172.031 147.099 174.906C146.18 175.865 144.654 175.885 143.714 174.965L136.79 167.277C127.83 174.886 127.458 183.396 127.067 192.923C126.696 201.549 126.304 210.958 120.318 221.464C114.978 230.853 110.889 249.105 106.41 269.155C100.815 294.272 94.5948 322.169 84.2058 340.068L90.1538 339.598C105.275 338.463 118.91 339.227 132.447 339.969C142.483 340.537 152.478 341.084 162.865 340.85C164.92 340.811 166.915 340.694 168.851 340.537C158.757 331.362 154.493 316.848 154.062 300.493C154.003 298.576 154.023 296.62 154.062 294.664L154.082 294.508L154.102 293.822V293.392L154.161 292.296V292.119L154.2 291.278V291.18L154.259 290.417L154.279 290.064L154.299 289.556L154.358 288.714L154.436 287.853V287.814L154.495 286.993C154.71 284.646 154.964 282.279 155.278 279.912C155.825 275.94 156.509 271.931 157.332 267.939L157.351 267.88C157.606 266.706 157.86 265.552 158.114 264.398V264.359L158.31 263.539L158.389 263.185L158.526 262.677L158.721 261.816L158.936 260.956L159.582 258.393L159.816 257.533L160.032 256.691L160.188 256.105L160.266 255.831L160.501 254.99L160.521 254.951L160.755 254.148L160.853 253.777L160.99 253.306L161.186 252.622L161.245 252.466L161.479 251.624L161.538 251.468L161.871 250.333L161.989 249.962L162.224 249.179L162.243 249.14L162.497 248.318L162.595 248.045L162.771 247.497L163.299 245.853L163.318 245.794L163.71 244.68L163.788 244.445L164.474 242.469L164.513 242.352L165.257 240.298V240.259L165.648 239.202L165.765 238.889L166.783 236.208L166.861 236.013L167.585 234.213L167.703 233.94L168.387 232.276L168.543 231.905L168.661 231.632L168.915 230.986L168.955 230.888L169.189 230.361L169.385 229.891L169.463 229.734C169.835 228.894 170.207 228.072 170.578 227.25L170.696 226.977L170.852 226.645L171.126 226.038V226.018L171.4 225.452L171.576 225.08L171.694 224.845L171.967 224.259L172.026 224.161L172.261 223.672L172.457 223.241L172.535 223.104L172.828 222.517L172.906 222.34L173.102 221.949L173.356 221.461L173.396 221.401L173.669 220.834L173.806 220.58L173.962 220.287L174.256 219.738V219.718L174.53 219.191L174.706 218.858L174.823 218.662L175.117 218.135L175.156 218.037L175.391 217.606L175.626 217.214L175.684 217.077L175.978 216.569L176.075 216.392L176.271 216.059L176.525 215.61L176.545 215.571L176.838 215.062L176.975 214.827L177.131 214.573L177.425 214.085V214.065L177.698 213.614L177.874 213.321L177.991 213.145L178.285 212.675L178.344 212.597L178.383 212.538L178.423 212.479L178.462 212.401L178.501 212.341L178.54 212.282L178.579 212.223L178.619 212.145L178.658 212.086L178.698 212.027L178.738 211.968L178.777 211.909L178.817 211.85L178.856 211.791L178.876 211.771L178.896 211.712L178.936 211.653L178.975 211.593L179.015 211.535L179.054 211.476L179.094 211.416L179.133 211.357L179.153 211.318L179.173 211.297L179.212 211.22L179.251 211.16L179.291 211.101L179.331 211.042L179.37 210.983L179.41 210.924L179.449 210.885V210.865L179.508 210.806L179.547 210.747L179.586 210.688L179.626 210.629L179.666 210.57L179.705 210.511L179.745 210.452L179.784 210.393L179.824 210.333L179.864 210.275L179.903 210.215L179.943 210.156L179.982 210.097L180.022 210.038V210.018L180.062 209.979L180.101 209.919L180.141 209.86L180.18 209.801L180.219 209.742L180.258 209.683L180.298 209.624L180.318 209.604L180.338 209.565L180.377 209.506L180.417 209.447L180.456 209.408L180.496 209.349L180.536 209.29L180.575 209.231L180.615 209.192V209.172L180.654 209.113L180.694 209.054L180.734 209.015L180.773 208.955L180.813 208.896L180.852 208.837L180.891 208.778L180.931 208.738L180.97 208.68L181.01 208.64L181.049 208.601V208.581L181.089 208.542L181.129 208.503L181.168 208.464L181.227 208.425L181.267 208.386V208.366L181.306 208.346L181.346 208.307H181.366L181.406 208.268L181.445 208.229L181.504 208.19L181.544 208.17L181.603 208.131L181.642 208.111V208.091L181.701 208.071L181.741 208.051H181.76L181.8 208.012L181.858 207.992L181.897 207.972H181.917L181.957 207.952L182.016 207.932L182.075 207.912L182.134 207.892L182.173 207.871L182.232 207.852L182.291 207.832H182.35L182.409 207.812H182.468V207.792H182.527H182.585L182.625 207.771H182.644H182.684H182.743H182.802C183.31 207.752 183.819 207.869 184.25 208.202C184.484 208.358 184.661 208.554 184.817 208.769C185.698 210.001 186.578 211.351 187.477 212.819L187.615 213.053L187.752 213.268L188.554 214.637L188.828 215.108L189.102 215.577L189.239 215.831L189.357 216.066L189.63 216.536V216.556L189.904 217.044L190.041 217.298L190.178 217.533L190.432 218.042L190.452 218.062L190.705 218.551L190.842 218.824L190.979 219.079L191.233 219.587L191.253 219.607L191.507 220.116L191.664 220.41L191.782 220.644L192.056 221.192V221.212L192.31 221.74L192.466 222.033L193.112 223.402L193.268 223.715C196.124 229.838 198.902 236.841 201.367 244.353C202.482 247.718 203.538 251.181 204.516 254.721L204.634 255.152L204.751 255.582V255.621L205.319 257.715L205.339 257.832L205.417 258.145L205.535 258.576L205.633 258.928L205.653 259.006L205.75 259.437L205.868 259.868L205.907 260.044L205.966 260.298L206.083 260.729L206.182 261.16L206.455 262.294L206.494 262.471L206.593 262.901L206.69 263.332L206.71 263.41L206.788 263.782L206.906 264.212L206.964 264.525L207.004 264.642L207.102 265.073L207.199 265.522L207.219 265.659L207.278 265.953L207.376 266.384L207.474 266.775V266.835L207.572 267.266L207.67 267.696L207.709 267.911L207.748 268.145L207.846 268.577V268.616L207.924 269.026L207.983 269.319L208.101 269.848V269.907L208.14 270.024L208.199 270.337L208.277 270.729V270.768L208.414 271.433V271.472C209.274 269.457 210.311 267.56 211.505 265.858C215.183 260.615 220.269 257.153 225.981 257.153C231.752 257.153 236.936 260.146 240.653 264.998C244.213 269.653 246.424 276.051 246.424 283.073C246.424 284.658 246.307 286.203 246.091 287.728C245.935 288.804 245.719 289.861 245.465 290.898C248.341 294.203 250.688 298.253 252.352 302.772C254.093 307.584 255.09 312.944 255.09 318.578C255.09 322.628 254.581 326.52 253.662 330.159L257.183 330.941L263.991 332.585C284.159 337.788 301.804 341.133 319.567 342.815C321.249 342.972 322.912 343.128 324.575 343.246L315.811 323.742C315.537 323.117 315.517 322.392 315.831 321.728C315.851 321.689 324.027 304.591 316.222 296.082C310.295 289.607 311.469 281.86 313.073 271.219C314.17 264.078 315.46 255.549 314.795 245.319C313.27 221.532 281.305 202.81 281.227 202.772C280.092 202.106 279.701 200.62 280.366 199.485C281.031 198.35 282.499 197.979 283.653 198.643C283.751 198.703 317.886 218.674 319.589 245.006C320.274 255.804 318.943 264.587 317.828 271.923C316.42 281.274 315.383 288.062 319.765 292.834C328.411 302.283 322.406 318.52 320.625 322.745L330.016 343.618C343.591 344.42 357.56 344.322 373.091 343.383L372.857 342.483L371.878 338.278L370.998 334.424C363.095 302.381 363.78 292.444 368.317 271.219L368.356 271.023V271.004C369.237 266.563 370.196 262.358 371.134 258.17L372.034 254.16L372.112 253.789V253.75L372.209 253.358C372.953 249.915 373.716 246.16 374.538 242.011L374.576 241.796C375.475 236.795 376.277 231.455 376.844 225.527ZM149.63 240.531C148.887 239.807 147.89 239.338 146.775 239.338C145.66 239.338 144.642 239.808 143.918 240.531C143.194 241.256 142.725 242.271 142.725 243.386C142.725 244.501 143.195 245.499 143.918 246.243C144.642 246.966 145.66 247.416 146.775 247.416C147.89 247.416 148.888 246.966 149.63 246.243C150.354 245.499 150.804 244.501 150.804 243.386C150.804 242.271 150.354 241.256 149.63 240.531ZM124.18 305.164C123.827 304.812 123.339 304.598 122.791 304.598C122.263 304.598 121.793 304.793 121.46 305.125L121.421 305.164C121.068 305.517 120.853 306.006 120.853 306.533C120.853 307.062 121.049 307.531 121.381 307.884L121.401 307.904C121.772 308.276 122.262 308.491 122.79 308.491C123.318 308.491 123.788 308.276 124.14 307.963L124.16 307.924C124.513 307.571 124.727 307.083 124.727 306.534C124.727 306.026 124.531 305.537 124.199 305.204L124.18 305.164ZM272.891 303.443C272.636 303.892 272.421 304.402 272.226 304.91C272.754 304.812 273.283 304.695 273.811 304.539C275.141 304.127 276.413 303.463 277.527 302.562C278.623 301.663 279.523 300.547 280.208 299.315C280.463 298.845 280.678 298.357 280.873 297.847C280.325 297.926 279.798 298.063 279.288 298.22C277.939 298.63 276.687 299.276 275.572 300.175C274.476 301.096 273.576 302.191 272.891 303.443ZM267.257 358.061C268.255 359.879 268.92 361.895 269.233 364.028L269.253 364.262C269.331 365.592 268.295 366.707 266.984 366.766C264.832 366.883 262.719 366.629 260.763 366.041C258.806 365.455 257.007 364.496 255.402 363.205C253.798 361.894 252.508 360.31 251.549 358.53C250.551 356.711 249.886 354.695 249.554 352.563L249.534 352.328C249.475 350.998 250.492 349.883 251.822 349.806C253.974 349.707 256.068 349.943 258.043 350.549C259.981 351.136 261.799 352.094 263.384 353.385C264.988 354.695 266.278 356.28 267.257 358.061ZM132.572 394.25C132.885 392.119 133.55 390.104 134.548 388.285C135.526 386.504 136.817 384.92 138.402 383.608C139.986 382.317 141.805 381.379 143.762 380.771C145.719 380.166 147.831 379.931 149.983 380.047C151.313 380.107 152.331 381.222 152.272 382.552L152.253 382.786C151.92 384.919 151.255 386.932 150.257 388.753C149.299 390.533 148.007 392.118 146.403 393.428C144.799 394.72 143 395.677 141.062 396.265C139.086 396.851 136.974 397.106 134.822 396.988C133.511 396.929 132.474 395.816 132.552 394.484L132.572 394.25ZM204.384 332.963L204.971 334.43C207.083 339.477 210.194 343.663 213.93 346.558C216.786 348.769 220.014 350.216 223.456 350.705V327.7L212.384 315.179C211.465 314.162 211.563 312.577 212.599 311.658C213.636 310.759 215.202 310.856 216.121 311.874L223.456 320.167V302.757L214.536 292.507C213.617 291.47 213.734 289.886 214.77 288.986C215.807 288.067 217.392 288.184 218.312 289.22L223.457 295.128V286.149C223.457 284.76 224.572 283.645 225.961 283.645C227.33 283.645 228.465 284.76 228.465 286.149V327.543L236.172 318.192C237.032 317.116 238.617 316.96 239.673 317.839C240.75 318.719 240.886 320.284 240.026 321.34L228.465 335.386V350.703C233.981 349.92 238.989 346.635 242.764 341.685C247.264 335.816 250.041 327.678 250.041 318.621C250.041 313.555 249.161 308.781 247.616 304.517C246.011 300.134 243.683 296.3 240.847 293.308C240.222 292.642 240.026 291.723 240.279 290.902C240.612 289.689 240.905 288.398 241.101 287.067C241.277 285.815 241.375 284.485 241.375 283.116C241.375 277.208 239.556 271.887 236.641 268.072C233.863 264.453 230.069 262.204 225.94 262.204C221.989 262.204 218.312 264.807 215.553 268.758C212.482 273.159 210.565 279.164 210.545 285.248C211.622 295.029 211.777 304.576 210.604 313.144C209.607 320.619 207.593 327.367 204.384 332.963ZM337.348 122.337C337.348 121.007 338.444 119.932 339.755 119.932C341.085 119.932 342.16 121.007 342.16 122.337V134.074C342.16 135.404 341.085 136.48 339.755 136.48C338.443 136.48 337.348 135.404 337.348 134.074V122.337ZM385.1 196.713C386.234 197.377 386.625 198.845 385.981 199.998C385.315 201.133 383.848 201.524 382.694 200.859L372.542 194.99C371.388 194.326 370.996 192.858 371.661 191.724C372.327 190.57 373.794 190.177 374.947 190.843L385.1 196.713ZM382.713 145.753C383.848 145.088 385.315 145.498 385.981 146.633C386.626 147.787 386.234 149.254 385.081 149.901L374.928 155.769C373.794 156.415 372.327 156.024 371.661 154.889C371.015 153.735 371.407 152.268 372.542 151.602L382.713 145.753ZM315.399 135.894C314.734 134.759 315.126 133.292 316.259 132.627C317.413 131.961 318.881 132.354 319.546 133.488L323.126 139.709C323.791 140.843 323.399 142.311 322.265 142.975C321.111 143.641 319.644 143.249 318.979 142.095L315.399 135.894ZM384.337 170.891C385.667 170.891 386.742 171.987 386.742 173.297C386.742 174.627 385.667 175.703 384.337 175.703H377.177C375.846 175.703 374.771 174.627 374.771 173.297C374.771 171.986 375.846 170.891 377.177 170.891H384.337ZM359.981 133.507C360.627 132.354 362.093 131.961 363.248 132.627C364.383 133.273 364.773 134.739 364.129 135.894L360.549 142.095C359.883 143.249 358.416 143.641 357.282 142.975C356.129 142.33 355.736 140.863 356.402 139.709L359.981 133.507ZM258.043 384.43C259.471 383.648 260.978 382.866 262.543 382.103C264.166 381.321 265.868 380.557 267.608 379.833C274.807 376.879 282.026 374.962 288.853 374.043C296.012 373.064 302.782 373.182 308.728 374.297C310.078 374.551 310.978 375.861 310.724 377.232C310.469 378.582 309.158 379.461 307.809 379.227C302.39 378.19 296.149 378.092 289.518 378.993C283.082 379.873 276.294 381.673 269.506 384.45L267.823 385.175C270.249 385.409 272.655 385.702 275.022 386.016C289.166 387.972 302.272 391.396 313.813 396.013C315.104 396.521 315.711 397.988 315.203 399.26C314.694 400.55 313.247 401.177 311.956 400.649C300.786 396.17 288.07 392.863 274.356 390.965C261.113 389.146 246.892 388.657 232.181 389.694C214.301 390.965 197.477 394.389 182.473 399.475C166.941 404.717 153.326 411.741 142.449 419.976C141.354 420.798 139.789 420.582 138.947 419.487C138.126 418.391 138.341 416.807 139.437 415.986C150.704 407.436 164.809 400.16 180.889 394.741L181.417 394.566L181.183 344.877C181.183 343.508 182.298 342.373 183.667 342.373C185.056 342.373 186.171 343.488 186.171 344.857L186.386 392.981C197.948 389.459 210.448 386.896 223.554 385.449V352.918C223.554 351.548 224.669 350.414 226.058 350.414C227.428 350.414 228.562 351.548 228.562 352.918V384.961C229.638 384.883 230.734 384.784 231.83 384.706C240.77 384.078 249.534 384 258.043 384.43ZM26.3108 345.169C26.0168 345.012 25.8608 344.934 26.1738 345.149L26.3108 345.169Z" fill="black"/>
</svg>
