<svg width="300" height="300" viewBox="0 0 300 300" fill="none" xmlns="http://www.w3.org/2000/svg">
<path d="M117.773 149.019C118.011 166.678 132.572 180.851 150.231 180.613C167.89 180.375 182.063 165.814 181.824 148.155C181.586 130.496 167.025 116.323 149.367 116.562C131.708 116.8 117.535 131.36 117.773 149.019ZM162.743 148.413C162.839 155.549 157.11 161.435 149.973 161.532C142.836 161.628 136.951 155.899 136.854 148.762C136.758 141.625 142.487 135.739 149.624 135.643C156.761 135.546 162.647 141.276 162.743 148.413Z" fill="black"/>
<path d="M83.3159 149.489C83.5547 167.185 90.6714 183.788 103.358 196.24C107.116 199.93 113.157 199.873 116.849 196.114C120.545 192.343 120.485 186.312 116.723 182.616C107.657 173.718 102.568 161.859 102.397 149.231C102.227 136.603 106.995 124.611 115.817 115.472C117.637 113.583 118.526 111.142 118.494 108.714C118.461 106.26 117.486 103.819 115.579 101.975C111.787 98.3174 105.747 98.4238 102.089 102.213C89.7434 115.003 83.0771 131.792 83.3159 149.489Z" fill="black"/>
<path d="M48.778 149.949C49.1418 176.913 59.9935 202.132 79.3355 220.968C83.1126 224.644 89.1531 224.563 92.8297 220.786C96.5062 217.009 96.4216 210.971 92.6507 207.295C76.9569 192.019 68.1542 171.556 67.8592 149.692C67.5642 127.828 75.8116 107.135 91.0876 91.4409C92.9227 89.5524 93.8215 87.0987 93.7886 84.6577C93.7556 82.2166 92.791 79.7881 90.9025 77.9498C87.1253 74.2733 81.0849 74.3548 77.4083 78.1319C58.5816 97.483 48.4142 122.986 48.778 149.949Z" fill="black"/>
<path d="M52.694 54.0996C27.4683 80.1223 13.8431 114.326 14.33 150.414C14.8169 186.501 29.36 220.325 55.2786 245.657C59.0495 249.34 65.0903 249.271 68.773 245.5C72.459 241.729 72.3868 235.692 68.6189 232.009C46.333 210.23 33.8296 181.163 33.4112 150.156C32.9929 119.149 44.7075 89.7551 66.3978 67.3833C68.2267 65.4949 69.1194 63.0476 69.0865 60.6127C69.0535 58.1654 68.0857 55.7308 66.1878 53.8927C62.4046 50.2225 56.3642 50.3164 52.694 54.0996Z" fill="black"/>
<path d="M217.958 149.722C217.924 132.024 211 115.339 198.46 102.741C194.744 99.0081 188.703 98.9947 184.967 102.71C181.228 106.438 181.218 112.47 184.937 116.209C193.899 125.212 198.851 137.129 198.875 149.758C198.899 162.387 193.992 174.323 185.064 183.359C183.223 185.227 182.305 187.657 182.31 190.086C182.314 192.54 183.26 194.992 185.146 196.858C188.896 200.559 194.937 200.523 198.638 196.776C211.131 184.13 217.992 167.419 217.958 149.722Z" fill="black"/>
<path d="M252.498 149.661C252.447 122.695 241.888 97.3515 222.766 78.2924C219.032 74.5723 212.991 74.5838 209.271 78.318C205.551 82.0522 205.565 88.0902 209.293 91.8102C224.809 107.267 233.374 127.831 233.415 149.697C233.457 171.563 224.97 192.159 209.513 207.675C207.656 209.542 206.729 211.985 206.734 214.426C206.739 216.867 207.675 219.307 209.542 221.167C213.276 224.887 219.317 224.875 223.037 221.141C242.087 202.01 252.55 176.626 252.498 149.661Z" fill="black"/>
<path d="M247.473 245.458C272.999 219.729 287.019 185.686 286.951 149.595C286.882 113.504 272.732 79.5145 247.109 53.8831C243.381 50.1569 237.34 50.1559 233.614 53.8839C229.884 57.6119 229.887 63.6499 233.611 67.3761C255.643 89.4115 267.809 118.622 267.868 149.631C267.927 180.641 255.872 209.897 233.924 232.016C232.073 233.883 231.152 236.32 231.157 238.755C231.162 241.203 232.101 243.648 233.978 245.508C237.718 249.222 243.759 249.198 247.473 245.458Z" fill="black"/>
</svg>
