<svg width="512" height="512" viewBox="0 0 512 512" fill="none" xmlns="http://www.w3.org/2000/svg">
<path d="M257.461 430C341.318 430 413.838 370.278 429.666 287.992C431.014 281.369 428.207 274.633 422.594 270.817C416.981 267.112 409.684 267 403.959 270.704C384.987 283.053 362.873 289.564 340.084 289.564C275.198 289.564 222.324 236.802 222.324 171.917C222.324 149.128 228.947 127.013 241.296 108.041C245 102.316 244.888 95.0189 241.183 89.406C237.367 83.793 230.631 80.9866 224.008 82.3337C141.722 98.1624 82 170.681 82 254.539C82 351.306 160.694 430 257.461 430Z" fill="black"/>
</svg>
